<?xml version="1.0" encoding="UTF-8" standalone="no"?>
<!-- Generator: Adobe Illustrator 16.0.0, SVG Export Plug-In . SVG Version: 6.00 Build 0)  -->

<svg
   version="1.1"
   id="Layer_1"
   x="0px"
   y="0px"
   width="492.531px"
   height="492.531px"
   viewBox="0 0 492.531 492.531"
   enable-background="new 0 0 492.531 492.531"
   xml:space="preserve"
   sodipodi:docname="2clock_2.svg"
   inkscape:version="1.3.2 (091e20e, 2023-11-25, custom)"
   xmlns:inkscape="http://www.inkscape.org/namespaces/inkscape"
   xmlns:sodipodi="http://sodipodi.sourceforge.net/DTD/sodipodi-0.dtd"
   xmlns="http://www.w3.org/2000/svg"
   xmlns:svg="http://www.w3.org/2000/svg"><defs
   id="defs2248" /><sodipodi:namedview
   id="namedview2246"
   pagecolor="#505050"
   bordercolor="#ffffff"
   borderopacity="1"
   inkscape:pageshadow="0"
   inkscape:pageopacity="0"
   inkscape:pagecheckerboard="1"
   showgrid="false"
   inkscape:zoom="1.6425362"
   inkscape:cx="227.69666"
   inkscape:cy="245.65669"
   inkscape:window-width="1920"
   inkscape:window-height="1009"
   inkscape:window-x="1912"
   inkscape:window-y="362"
   inkscape:window-maximized="1"
   inkscape:current-layer="Layer_1"
   inkscape:showpageshadow="2"
   inkscape:deskcolor="#d1d1d1" />

<path
   style="fill:#000000;stroke-width:1.64402"
   d="m 241.55111,491.21725 c -11.77407,-0.66186 -21.46204,-2.0941 -25.33308,-3.74514 -3.45683,-1.47438 -10.34758,-2.62551 -15.36366,-2.56659 -5.76174,0.0678 -10.60136,-0.86349 -13.20396,-2.54049 -2.46801,-1.59027 -5.6881,-2.25742 -8.06459,-1.67084 -2.33996,0.57755 -6.91452,-0.32873 -11.19762,-2.21837 -3.98282,-1.75716 -8.92002,-3.69853 -10.97158,-4.31414 -2.05156,-0.6156 -3.7301,-2.05004 -3.7301,-3.18763 0,-1.1394 -4.47739,-3.29254 -9.96937,-4.79411 -5.79039,-1.58319 -11.38624,-4.32829 -13.34943,-6.54872 -2.01786,-2.28226 -6.99666,-4.67616 -12.35394,-5.94006 -4.93562,-1.16438 -8.5826,-2.73964 -8.10442,-3.50056 0.4782,-0.7609 -0.33719,-1.38346 -1.812,-1.38346 -1.47479,0 -5.72102,-3.2845 -9.436018,-7.29889 -3.715025,-4.01438 -7.351743,-6.93597 -8.081599,-6.49236 -0.729857,0.4436 -6.297603,-1.88034 -12.372797,-5.16431 -10.243969,-5.53742 -10.97867,-6.30085 -10.121238,-10.51692 0.834842,-4.10499 0.499599,-4.51711 -3.455448,-4.24769 -4.241175,0.28893 -4.367273,0.0389 -3.978436,-7.88201 0.344309,-7.01423 -0.223548,-8.75733 -3.983255,-12.22749 -5.955728,-5.49702 -18.322462,-25.3527 -20.89693,-33.55149 -1.153613,-3.67385 -3.539971,-7.3421 -5.303039,-8.15166 -1.763042,-0.80957 -4.314457,-4.77333 -5.669804,-8.8084 -1.355348,-4.03508 -3.094947,-7.72902 -3.865784,-8.2088 -2.753384,-1.71371 -6.727547,-13.51631 -5.78922,-17.19297 0.525608,-2.05941 0.206969,-4.19946 -0.708279,-4.75567 -0.915143,-0.55622 -1.663909,-2.3436 -1.663909,-3.97196 0,-1.9732 -1.628707,-3.28098 -4.8832975,-3.92111 -6.2708173,-1.23338 -9.9884324,-7.30056 -6.1601317,-10.05345 1.5202232,-1.09321 2.0287345,-2.53018 1.1995382,-3.38975 -1.93739868,-2.00828 -2.98791418,-16.98023 -1.1914303,-16.98023 0.7822331,0 1.0850189,-3.48483 0.6728427,-7.74406 -1.10082,-11.3755 1.731518,-45.72781 4.4694895,-54.20854 1.3026858,-4.03507 2.8932112,-13.04161 3.5344781,-20.01451 0.641266,-6.97293 1.552136,-12.29822 2.024149,-11.83405 2.181384,2.14522 5.09884,-3.00844 4.201337,-7.4216 -0.531176,-2.61184 -0.308615,-4.74879 0.494575,-4.74879 2.356543,0 5.215613,-8.30769 6.007871,-17.45734 0.512008,-5.91291 2.083883,-10.22939 5.17769,-14.21833 l 4.442473,-5.72784 -3.423974,-3.36719 c -3.558827,-3.49982 -3.148593,-6.50892 0.887324,-6.50892 1.509291,0 1.975346,1.01039 1.316001,2.85308 -0.711103,1.98734 -0.479734,2.35837 0.76252,1.22274 0.980887,-0.89668 2.023191,-2.61275 2.316289,-3.81349 0.293071,-1.20077 2.586203,-4.39823 5.095835,-7.1055 2.509633,-2.70729 7.204638,-9.86608 10.433351,-15.908444 4.988491,-9.335687 7.649737,-12.186984 17.714661,-18.979812 8.456943,-5.707587 11.914149,-9.057893 12.08861,-11.714825 0.134438,-2.046626 2.605294,-6.116623 5.49089,-9.044443 2.88562,-2.927821 5.246567,-6.165125 5.246567,-7.194042 0,-2.779462 17.878578,-16.587302 22.958668,-17.731258 2.41747,-0.544379 8.33234,-2.772075 13.14412,-4.950452 4.81181,-2.178353 9.45902,-3.52898 10.32715,-3.001339 1.93776,1.177762 8.07916,-1.840771 12.07289,-5.933873 3.24529,-3.326054 7.06372,-4.178539 5.16193,-1.152415 -0.83153,1.323117 0.006,1.573397 2.80336,0.837405 2.19416,-0.577341 4.73536,-1.1113 5.64716,-1.18655 0.9118,-0.0754 0.16578,-0.785896 -1.65782,-1.579181 -2.66174,-1.157892 -2.17131,-1.399129 2.48674,-1.223257 3.1913,0.120485 7.46045,-0.661227 9.48701,-1.737169 2.02653,-1.075943 10.48653,-4.142164 18.8,-6.8138194 16.68026,-5.3604796 28.57191,-6.2360187 32.48128,-2.3914928 2.85916,2.8117618 19.6303,2.2675876 22.6846,-0.7360692 1.24036,-1.2197939 1.09098,-1.7300112 -0.50651,-1.7300112 -1.24612,0 -1.74676,-0.5103448 -1.11249,-1.134074 1.92978,-1.89778256 6.20002,-1.98500531 10.7902,-0.2203496 2.39718,0.921545 9.04106,1.8674431 14.76416,2.1019561 5.72305,0.234615 10.88303,0.8959183 11.46658,1.4697949 0.58356,0.5738513 -0.36889,1.0474882 -2.1165,1.0524811 -6.19971,0.017832 -16.23894,3.4927561 -14.0079,4.8487341 1.17545,0.714416 1.62455,2.114616 0.99802,3.111564 -0.76317,1.214343 1.04619,1.812599 5.48205,1.812599 3.64169,0 8.58369,0.733751 10.98224,1.63056 2.99706,1.120598 5.41974,1.073345 7.7461,-0.151061 2.44809,-1.28842 3.88652,-1.288496 5.1965,-2.29e-4 0.99628,0.979753 3.34075,1.756963 5.20993,1.727133 3.31254,-0.05298 3.30415,-0.131704 -0.33155,-3.114417 -4.35212,-3.570478 -4.70456,-4.983008 -1.24337,-4.983008 1.3677,0 2.48674,-0.733649 2.48674,-1.630331 0,-0.8966827 -0.79007,-1.630332 -1.75567,-1.630332 -0.96562,0 -1.2946,-0.7336494 -0.73107,-1.6303317 0.56353,-0.8966824 1.77061,-1.6303317 2.68241,-1.6303317 0.9118,0 1.19676,0.7336493 0.63324,1.6303317 -0.57599,0.9165011 0.74403,1.6303317 3.01483,1.6303317 2.22166,0 4.93991,1.0670774 6.04055,2.371266 1.71639,2.033814 1.24832,2.158942 -3.28897,0.879259 -4.94466,-1.394596 -5.22596,-1.25668 -4.30755,2.11212 0.54044,1.982304 0.99279,5.277867 1.00523,7.323501 0.0181,3.169823 0.81866,3.672856 5.41056,3.404897 6.88732,-0.401902 16.44023,1.714064 15.37695,3.405967 -0.44867,0.713932 3.42384,1.643781 8.60555,2.066368 5.18173,0.422587 9.7076,1.612909 10.05747,2.645137 0.34988,1.032229 1.58407,1.876792 2.74266,1.876792 1.15855,0 4.11891,1.834124 6.57856,4.07583 2.45963,2.241705 6.11214,4.099163 8.11671,4.127668 2.0046,0.02853 5.07087,1.113211 6.81394,2.41042 1.7431,1.297184 4.76244,1.965314 6.70965,1.484672 3.0106,-0.743075 3.5147,-0.189017 3.36859,3.703349 -0.0946,2.517462 0.52107,5.494268 1.36798,6.615121 2.18944,2.897661 6.21202,2.572945 5.04901,-0.407583 -1.0406,-2.666763 1.91157,-3.414347 3.5003,-0.886364 0.5389,0.857528 1.88848,1.34459 2.99904,1.082362 1.11052,-0.262203 1.46303,-0.170167 0.7833,0.204555 -1.79681,0.99063 13.45754,19.978543 16.05017,19.978543 1.20279,0 3.11557,1.100474 4.25067,2.445498 1.13509,1.345024 3.14415,2.445498 4.46458,2.445498 3.35313,0 18.8739,13.148828 17.70889,15.002566 -0.5246,0.83473 0.42645,2.546018 2.11339,3.802875 1.68696,1.25683 2.32119,2.33451 1.40939,2.39478 -0.91182,0.0604 0.20723,1.23477 2.48672,2.60996 2.71244,1.63637 3.031,2.1555 0.92185,1.5024 -3.14244,-0.97308 -3.14638,-0.915 -0.15748,2.3329 2.03977,2.21656 2.35672,3.33082 0.94742,3.33082 -1.69449,0 -1.70525,0.48877 -0.0538,2.4455 1.13508,1.34502 1.44802,2.4455 0.69545,2.4455 -0.75263,0 1.26101,2.75118 4.4747,6.11374 7.01318,7.33807 10.21904,12.35239 12.76867,19.97156 1.73339,5.17998 1.68227,5.41433 -0.55448,2.54149 -2.41591,-3.10291 -2.46402,-3.09682 -2.46402,0.31136 0,1.91182 0.67869,3.88856 1.50822,4.39273 2.14228,1.30204 6.94563,-0.77343 5.8446,-2.52542 -0.50446,-0.80272 -0.0891,-1.45949 0.92306,-1.45949 1.01212,0 2.90988,2.51761 4.21726,5.59469 1.30737,3.07707 3.13435,6.05494 4.05996,6.61753 0.92563,0.56257 1.68294,4.35948 1.68294,8.43758 0,5.62964 0.55004,7.20712 2.28472,6.55248 3.57531,-1.34919 6.0044,2.23532 6.0044,8.8604 0,3.33553 1.58117,16.57791 3.5137,29.42749 2.83509,18.85068 3.32388,27.63783 2.53082,45.49723 -0.7005,15.77503 -0.43033,22.67776 0.94045,24.02582 1.45925,1.43504 0.94862,2.93411 -2.11634,6.21253 -2.76468,2.95721 -3.38565,4.55063 -1.96744,5.04845 3.35989,1.17932 2.45697,5.95142 -4.55901,24.09545 -3.64722,9.43207 -6.6313,18.24276 -6.6313,19.57935 0,1.33657 -1.03431,2.43014 -2.29849,2.43014 -1.452,0 -2.70906,2.69239 -3.41327,7.31056 -1.25147,8.20702 -10.8831,20.40508 -16.11189,20.40508 -1.67401,0 -3.04368,0.73364 -3.04368,1.63033 0,0.89668 0.67369,1.63033 1.49712,1.63033 2.69152,0 -8.87767,20.42426 -17.85103,31.51423 -4.82387,5.96172 -10.88727,12.06907 -13.47426,13.57187 -5.14901,2.99118 -9.64125,10.34518 -6.31941,10.34518 3.71013,0 -5.76634,7.98067 -10.0579,8.4703 -3.17199,0.36192 -5.14281,2.15405 -7.26922,6.61027 -3.18552,6.67572 -4.73731,7.98882 -3.37163,2.85308 1.3581,-5.10723 -2.19889,-3.81654 -4.49311,1.63033 -2.05298,4.87413 -5.74842,7.14367 -3.89411,2.39154 0.84121,-2.15576 0.35831,-2.22301 -3.51141,-0.48907 -3.96069,1.77468 -4.17287,2.23607 -1.80974,3.93537 6.59666,4.74359 -55.82539,28.39912 -74.93943,28.39912 -6.65533,0 -10.15657,-0.60513 -9.50451,-1.64272 0.57558,-0.91581 -0.91776,-0.76887 -3.37486,0.33209 -3.93546,1.76338 -4.07987,2.10147 -1.34897,3.15846 1.68204,0.65099 2.11892,1.23524 0.97089,1.29823 -1.14807,0.0631 -4.4293,2.31555 -7.29165,5.0056 -5.8081,5.4585 -5.79744,5.45769 -44.50023,3.28214 z m 15.77421,-224.59363 c -0.52346,2.91054 -0.91475,8.2265 -0.86955,11.81323 0.0453,3.58672 -0.11922,12.0237 -0.36548,18.74882 -0.24634,6.72512 0.2396,12.71534 1.07989,13.3116 2.56828,1.82272 1.59418,31.73627 -1.14597,35.19076 -1.09258,1.37743 -0.98168,2.03791 0.34213,2.03791 1.07727,0 1.49762,0.73366 0.93408,1.63034 -0.56352,0.89668 -0.35923,1.63033 0.45401,1.63033 2.00988,0 1.44371,5.73589 -0.83235,8.43292 -1.17039,1.38685 -1.57688,7.23663 -1.11401,16.03176 1.41275,26.84422 0.93582,39.56589 -1.54138,41.11554 -1.27443,0.79725 -0.94465,1.22201 0.96145,1.23842 3.34947,0.0287 3.87965,2.56486 0.82891,3.96494 -1.65782,0.7608 -1.65782,1.14122 0,1.90204 1.13976,0.52307 2.07228,2.40047 2.07228,4.17203 0,1.77159 -0.69936,2.79597 -1.55416,2.27643 -2.03411,-1.2363 -0.45522,7.33798 1.8554,10.07594 0.9694,1.14869 1.08396,2.08855 0.25463,2.08855 -0.8294,0 -1.62941,1.58471 -1.77775,3.52154 -0.14843,1.93689 -1.1157,4.03572 -2.14963,4.66413 -1.32776,0.80699 -1.21101,1.39495 0.39739,2.00195 1.40183,0.52898 2.20158,3.1031 2.08038,6.6958 l -0.19687,5.83643 6.05139,-3.34468 c 3.73585,-2.06484 7.90929,-3.06856 10.90676,-2.62313 4.61238,0.68546 4.66695,0.78384 1.09033,1.96588 -2.9405,0.97183 -3.3562,1.72878 -1.89817,3.45642 2.16687,2.56765 8.14995,0.27182 8.14995,-3.1273 l -1.3e-4,6.4e-4 c 0,-1.11791 1.97612,-2.19338 4.3914,-2.38997 2.41526,-0.19665 5.39934,-1.18008 6.63127,-2.18554 1.67476,-1.36688 2.23991,-1.3224 2.23991,0.17629 0,1.10241 1.08104,1.59642 2.40229,1.09782 1.60565,-0.60592 2.0966,-0.12309 1.48045,1.45591 -1.43476,3.67693 2.40624,2.77711 4.48999,-1.05185 1.20581,-2.21571 2.95085,-3.13329 4.97082,-2.61382 1.71204,0.4403 3.97756,-0.22418 5.03456,-1.47668 1.05693,-1.25245 3.13595,-2.28842 4.61992,-2.30214 2.30746,-0.0204 2.34502,-0.24456 0.25949,-1.54169 -3.65299,-2.27192 -0.69984,-4.03395 6.01551,-3.5892 4.76403,0.31552 5.75157,-0.10526 4.96689,-2.11617 -1.16809,-2.9935 1.37695,-3.20187 8.65072,-0.70829 6.17086,2.11549 10.29464,-0.12692 9.02361,-4.90668 -0.58632,-2.205 0.32483,-3.19534 3.48679,-3.78978 2.51841,-0.47343 4.29101,-0.0588 4.30595,1.00711 0.0156,1.165 0.46021,1.22978 1.24337,0.18138 0.66989,-0.89669 3.82905,-3.04055 7.02036,-4.76414 3.19131,-1.72362 7.98682,-5.20002 10.65669,-7.7254 2.66987,-2.52538 5.28095,-4.16481 5.80238,-3.64321 0.52144,0.52161 -1.84952,3.2644 -5.26884,6.09508 -7.24826,6.00048 -8.26764,8.95504 -1.65775,4.80481 4.34845,-2.73029 4.4524,-2.73022 2.2505,10e-4 -3.66527,4.54776 -1.13253,4.84435 3.70651,0.43408 4.72994,-4.31085 6.44361,-9.49411 1.91765,-5.80018 -4.91894,4.01467 -2.35527,-1.22782 3.81421,-7.79977 4.70313,-5.00994 8.38157,-7.19437 14.50594,-8.61437 10.11703,-2.34571 12.4889,-3.45329 14.66687,-6.84887 2.57094,-4.00821 -0.17097,-5.39272 -3.97512,-2.00714 -5.2486,4.67115 -5.6315,1.75474 -0.48885,-3.72335 2.54838,-2.71458 6.41056,-7.25556 8.58267,-10.09105 2.8,-3.65522 4.46441,-4.64888 5.71948,-3.41462 3.09035,3.0391 6.08057,1.89084 6.08057,-2.33496 0,-2.24171 0.70515,-4.07583 1.56697,-4.07583 0.86184,0 1.79436,-3.48483 2.07228,-7.74408 0.43108,-6.60671 1.05272,-7.82054 4.23266,-8.26468 2.46625,-0.34448 4.07705,-1.99932 4.7609,-4.891 0.56843,-2.40372 3.25977,-7.85718 5.98078,-12.11884 2.721,-4.26164 4.53508,-8.8047 4.03133,-10.09572 -0.50377,-1.29104 1.26525,-10.27628 3.93116,-19.96721 2.83166,-10.29345 4.86278,-21.78143 4.88483,-27.62832 0.0315,-8.41987 0.48636,-9.97248 2.86432,-9.78199 1.95237,0.15641 2.94714,-1.16026 3.21631,-4.25696 0.21422,-2.46589 -0.26737,-4.48341 -1.07046,-4.48341 -0.80311,0 3.21106,-6.07506 0.91802,-4.48342 l -0.60919,-32.51236 c 5.42163,-6.77472 -1.92767,-36.80423 -3.49291,-38.65894 -1.2069,-1.4301 -1.63866,-2.60021 -0.95946,-2.60021 0.67918,0 0.32773,-1.07495 -0.78107,-2.38879 -1.10878,-1.31383 -2.26967,-6.52297 -2.57973,-11.57588 -0.31007,-5.05289 -0.97981,-9.59619 -1.48829,-10.09624 -0.50848,-0.50008 -0.11907,-1.86373 0.86555,-3.03036 2.53799,-3.00737 0.20877,-12.52512 -2.78829,-11.39408 -1.45639,0.5496 -2.67742,-0.5576 -3.29847,-2.99104 -0.54234,-2.12501 -2.78801,-5.52843 -4.99038,-7.56314 -2.2558,-2.0841 -4.00429,-5.56279 -4.00429,-7.96682 0,-2.90403 -2.38338,-6.56769 -7.46019,-11.46757 -4.10312,-3.96013 -7.46754,-7.96453 -7.47647,-8.89869 -0.007,-0.93415 -2.98571,-4.26624 -6.61503,-7.40463 -3.6293,-3.13839 -6.60606,-6.849814 -6.61502,-8.247645 -0.0259,-3.955974 -4.14082,-8.539091 -7.91328,-8.812401 -3.56491,-0.25828 -16.18164,-9.482111 -23.99452,-17.54191 -2.49562,-2.574473 -6.78524,-5.451423 -9.53247,-6.393245 -2.74728,-0.941822 -4.99503,-2.417578 -4.99503,-3.279463 0,-0.861884 -0.67869,-1.154554 -1.50822,-0.650375 -2.02517,1.230849 -6.97424,-0.727968 -5.95136,-2.355549 0.44575,-0.709296 -4.22116,-3.267286 -10.37092,-5.684431 -6.14976,-2.417145 -11.92741,-4.949407 -12.83922,-5.627243 -2.55498,-1.899413 -18.44169,-6.621007 -22.27766,-6.621007 -1.8802,0 -3.41859,-0.560018 -3.41859,-1.244503 0,-3.41394 -41.30757,-10.207456 -53.63386,-8.820732 -3.99314,0.449234 -4.61021,1.138507 -3.96958,4.434069 0.41717,2.14618 0.17173,3.545564 -0.54528,3.109731 -0.71707,-0.435834 -1.7405,-0.09756 -2.27427,0.751863 -0.53379,0.849353 -0.16837,2.031852 0.81223,2.627789 0.98052,0.595963 1.57522,2.664192 1.32157,4.596083 -0.25359,1.931893 0.11936,4.429586 0.82887,5.55044 0.70952,1.120853 0.70464,2.954976 -0.0101,4.075828 -2.0432,3.2008 -2.42351,15.573821 -0.51435,16.734158 0.98879,0.600982 1.28233,3.347224 0.68976,6.453541 -0.58164,3.048797 -0.18495,6.962739 0.90908,8.973295 1.61384,2.965496 1.43004,3.946498 -1.09163,5.825991 -2.86855,2.138027 -2.82775,2.262822 0.75619,2.311886 3.23064,0.04406 3.5351,0.517375 2.06782,3.213563 -1.19794,2.201227 -1.18553,3.486977 0.0409,4.232337 1.1247,0.68357 0.73512,1.8087 -1.07769,3.11228 -1.56157,1.12292 -2.30821,2.8866 -1.6592,3.91932 0.64974,1.03271 0.46054,1.87766 -0.4197,1.87766 -2.0048,0 -0.49278,6.13977 2.71786,11.0363 2.78307,4.24449 1.74248,14.80147 -1.66881,16.93002 -1.56943,0.9793 -1.36646,1.33629 0.77016,1.35468 3.10433,0.0267 3.7187,4.71696 1.38682,10.58685 -0.70473,1.77394 -0.69457,5.78389 0.0233,8.91102 0.80975,3.53074 0.63428,6.47923 -0.46295,7.77939 -1.06719,1.26455 -1.12538,2.09368 -0.14687,2.09368 1.4123,0 2.0149,6.42045 1.98925,21.1943 -0.0295,16.9807 0.15802,23.41233 0.97289,33.35106 0.51139,6.23786 1.26585,11.67209 3.13782,24.46124 -3.25538,12.31364 -3.95985,12.8996 -4.80456,17.59649 z m -22.79343,-19.3659 2.09123,-20.72022 c -0.0505,-4.63223 0.10518,-13.92462 0.3457,-20.64974 0.24065,-6.72512 -0.24996,-12.71533 -1.09006,-13.3116 -2.56831,-1.82272 -1.59418,-31.73627 1.14597,-35.19076 1.09258,-1.37741 0.98168,-2.03792 -0.34216,-2.03792 -1.07727,0 -1.49759,-0.73364 -0.93405,-1.63033 0.56352,-0.89669 0.3592,-1.63033 -0.45401,-1.63033 -2.00988,0 -1.44374,-5.73589 0.83235,-8.43291 1.17039,-1.38686 1.57688,-7.23664 1.11401,-16.03177 -1.41276,-26.84423 -0.93582,-39.565883 1.54138,-41.115539 1.2744,-0.797257 0.94465,-1.22201 -0.96147,-1.238415 -1.59565,-0.01268 -2.90117,-0.494321 -2.90117,-1.06797 0,-0.573672 1.30552,-2.017637 2.90117,-3.208823 2.76305,-2.062675 2.76305,-2.168265 0,-2.217659 -3.15325,-0.0563 -4.07492,-5.667364 -1.21631,-7.404762 0.92667,-0.563229 1.18392,-1.821132 0.57165,-2.795331 -0.61222,-0.974225 -1.20761,-5.240956 -1.32301,-9.481628 -0.16941,-6.2216 0.28044,-7.565427 2.32949,-6.959784 2.20376,0.651343 2.1973,0.530877 -0.0486,-0.91161 -2.51366,-1.614309 -2.76779,-6.337889 -0.99978,-18.582394 l 0.65124,-4.510211 -8.47859,0.971474 c -4.66323,0.534316 -12.58169,1.762008 -17.59659,2.728182 -5.01492,0.966201 -11.54467,1.693584 -14.51054,1.616423 -3.72805,-0.09706 -5.92078,0.830426 -7.10406,3.004753 -0.94137,1.729807 -2.99086,3.155889 -4.55444,3.169084 -4.79394,0.0405 -41.73766,12.794996 -48.33848,16.688432 -7.94196,4.684529 -18.33052,13.664116 -18.33052,15.844405 0,0.924067 -1.49204,1.680133 -3.31565,1.680133 -1.8236,0 -3.31564,0.733649 -3.31564,1.630332 0,0.896682 -1.0034,1.630332 -2.2298,1.630332 -1.22637,0 -3.59079,1.478965 -5.25426,3.286595 -2.93051,3.18447 -2.92562,3.360164 0.15749,5.654295 3.0777,2.290107 3.05617,2.369433 -0.65709,2.419591 -6.017146,0.08126 -9.742869,2.79039 -11.795071,8.576666 -1.401871,3.952589 -2.258317,4.749739 -3.308782,3.079669 -1.093592,-1.738594 -1.696081,-1.389651 -2.637595,1.52752 -1.161564,3.59914 -1.327449,3.63663 -3.45125,0.78032 -2.024693,-2.723012 -2.328334,-2.751186 -3.282928,-0.30477 -0.578554,1.48266 -2.031843,2.69575 -3.229542,2.69575 -2.886684,0 -4.776498,8.88083 -2.675493,12.57279 1.487844,2.61449 1.842203,2.4417 3.43348,-1.67417 0.975913,-2.52427 1.774388,-5.23215 1.774388,-6.01753 0,-0.78539 0.763609,-1.8921 1.696937,-2.45936 3.531499,-2.14641 -0.426863,13.06082 -4.462055,17.14225 -3.44923,3.48876 -3.863349,3.60619 -2.875002,0.81517 0.948327,-2.67803 0.75558,-2.89651 -1.07875,-1.22275 -3.203379,2.92303 -6.534954,2.51132 -6.596424,-0.81517 -0.04766,-2.57745 -0.288615,-2.54634 -2.49453,0.32207 -1.357938,1.7658 -1.986616,4.58544 -1.416325,6.35244 0.847666,2.62651 0.40855,3.01863 -2.533152,2.26213 -5.19629,-1.33634 -8.589152,4.47294 -6.92102,11.85009 1.551903,6.86309 -2.195657,14.67299 -7.040799,14.67299 -2.638658,0 -2.99856,0.82056 -2.16263,4.93081 0.919471,4.52118 0.730116,4.78729 -2.279506,3.20329 -3.61255,-1.90132 -4.413356,-0.11661 -1.314885,2.93058 1.518046,1.49285 1.139364,2.80162 -1.657823,5.72969 -4.204679,4.40146 -4.703684,6.78608 -1.13851,5.44071 1.786433,-0.67415 2.486734,0.16786 2.486734,2.99003 0,2.16064 -0.746021,4.38184 -1.657822,4.93603 -0.911803,0.55418 -1.657823,2.91212 -1.657823,5.23988 0,4.12902 -0.08082,4.1603 -3.315646,1.28143 -3.641718,-3.24104 -4.466251,-1.08472 -1.599487,4.18301 1.03057,1.89374 1.087092,3.15349 0.141426,3.15349 -0.866083,0 -2.045779,5.68579 -2.621561,12.63507 -0.575784,6.9493 -2.367274,19.99716 -4.869674,33.25392 3.06266,16.45146 3.933058,36.388 6.103174,38.73486 3.300828,3.56967 3.848221,5.70793 3.511294,13.71604 -0.219403,5.21791 -0.819613,10.56465 -1.333511,11.88163 -0.513899,1.31698 0.171999,2.81204 1.524419,3.32239 1.352344,0.51035 2.458784,2.05916 2.458784,3.44182 0,1.38269 2.45122,4.85509 5.447139,7.71644 2.995918,2.86134 5.5901,6.60372 5.764844,8.31636 1.575424,15.44067 3.679642,20.23236 8.884866,20.23236 1.711962,0 3.112667,0.73364 3.112667,1.63033 0,0.89668 1.305535,1.64157 2.901188,1.65529 2.325848,0.0204 2.441558,0.31117 0.583424,1.46817 -1.821039,1.13392 -1.038625,2.54768 3.650785,6.59678 3.282722,2.83446 6.427534,6.57567 6.988499,8.31382 1.041916,3.22835 5.769973,4.482 5.769973,1.52993 0,-0.89669 0.699109,-1.63034 1.553588,-1.63034 0.854478,0 1.129883,2.56777 0.611996,5.70617 -0.871627,5.28218 -0.624818,5.70614 3.322043,5.70614 2.344989,0 4.724689,0.73366 5.28822,1.63034 0.56353,0.89668 0.278773,1.63033 -0.63277,1.63033 -2.142218,0 0.89582,5.73816 6.932185,13.09322 2.552865,3.11058 4.516033,4.55513 4.362583,3.2101 -0.15335,-1.34502 -0.19065,-4.60327 -0.0826,-7.24051 0.18755,-4.57529 0.30797,-4.65001 2.63045,-1.63033 2.75398,3.58072 3.41206,9.59365 0.88163,8.05567 -0.91181,-0.55417 -1.65783,-0.31965 -1.65783,0.52116 0,0.84083 2.23806,2.44042 4.97347,3.55467 6.49183,2.64443 6.81777,7.00408 0.41446,5.54364 -4.40657,-1.00502 -4.44815,-0.95329 -1.24337,1.54745 1.82361,1.42297 4.88527,2.61053 6.80368,2.63907 1.91841,0.0286 5.50045,1.88596 7.96006,4.12766 2.45964,2.24171 5.14572,4.07583 5.96909,4.07583 0.82339,0 3.35808,1.83015 5.63266,4.06702 3.25622,3.20226 4.94663,3.772 7.95001,2.67958 4.56996,-1.66226 8.41666,-0.64218 6.86844,1.82136 -0.726,1.15522 -0.065,1.3734 1.90628,0.62943 1.65961,-0.62631 6.65887,0.0507 11.10946,1.50444 4.45058,1.45372 9.18325,2.23134 10.51705,1.72798 1.33379,-0.50332 2.42508,-0.20456 2.42508,0.664 0,0.86857 -1.95639,1.57918 -4.34754,1.57918 -3.87501,0 -4.10023,0.29982 -2.07228,2.75844 1.93779,2.34931 1.92991,2.55379 -0.0531,1.37845 -1.62863,-0.96526 -1.95162,-0.78048 -1.07471,0.61489 0.74661,1.18803 4.03535,1.81168 8.13082,1.54186 5.71111,-0.37625 6.79448,0.0204 6.38995,2.3328 -0.2731,1.56184 0.63741,2.89332 2.07228,3.03042 1.40766,0.13445 3.49191,0.31793 4.63167,0.40759 1.13975,0.0896 1.85307,-1.12086 1.58516,-2.69004 -0.59433,-3.48089 2.70287,-3.81419 4.03216,-0.40758 0.55814,1.43033 3.11723,2.47601 6.16482,2.51901 2.86578,0.0405 7.44859,1.08135 10.18401,2.3131 6.62097,2.9814 9.03052,2.99536 10.17633,0.0588 l 7.5e-4,3.2e-4 c 0.52484,-1.34501 1.71181,-2.44549 2.6377,-2.44549 0.97032,0 0.80921,1.03592 -0.38035,2.44549 -1.72714,2.04656 -1.47436,2.4455 1.54961,2.4455 1.9874,0 6.94262,-0.82438 11.01166,-1.832 5.87624,-1.45512 7.02102,-2.2789 5.56485,-4.0044 -1.02378,-1.21313 -1.23908,-3.10384 -0.48757,-4.28176 2.07827,-3.25745 2.49004,-15.63204 0.55921,-16.80556 -0.98882,-0.60101 -1.28233,-3.34723 -0.68976,-6.45355 0.58164,-3.04879 0.18495,-6.96274 -0.90908,-8.9733 -1.61384,-2.96551 -1.43004,-3.94651 1.09161,-5.82598 2.86855,-2.13803 2.82777,-2.26283 -0.75619,-2.31189 -3.23064,-0.0441 -3.53508,-0.51737 -2.0678,-3.21357 1.19794,-2.20122 1.18553,-3.48696 -0.0409,-4.23233 -1.12427,-0.68334 -0.73224,-1.81077 1.08378,-3.1166 3.60892,-2.59519 3.48925,-11.14134 -0.23443,-16.72994 -3.11041,-4.66841 -2.36377,-14.76865 1.25882,-17.02904 1.56942,-0.97929 1.36646,-1.3363 -0.77018,-1.35468 -3.1043,-0.0267 -3.71871,-4.71695 -1.38679,-10.58681 0.70473,-1.77399 0.69454,-5.78394 -0.0233,-8.91107 -0.80973,-3.53073 -0.63427,-6.47921 0.46297,-7.77938 1.06717,-1.26455 1.12538,-2.09367 0.14687,-2.09367 -1.61956,0 -2.57589,-15.26918 -1.83799,-29.34598 0.43732,-8.34261 6.47678,-40.14382 -2.83398,-44.15192 m -49.65025,184.36044 c -0.56354,-0.89667 -0.23469,-1.63033 0.73108,-1.63033 0.96561,0 1.75566,0.73366 1.75566,1.63033 0,0.89669 -0.32898,1.63034 -0.73108,1.63034 -0.40207,0 -1.19212,-0.73365 -1.75566,-1.63034 z M 58.696344,142.90559 c -1.274088,-1.25296 1.724187,-7.12213 3.638377,-7.12213 0.753274,0 1.013059,1.83412 0.57731,4.07583 -0.78358,4.03104 -2.184751,5.04356 -4.215687,3.0463 z m -23.095151,44.7428 c -1.023214,-3.01875 -4.080367,-3.36101 -5.166163,-0.57839 -0.687634,1.76221 0.03652,2.51441 2.420628,2.51441 1.889114,0 3.109972,-0.86089 2.745535,-1.93602 z M 432.77985,95.788111 c -0.51364,-1.316289 -1.60008,-2.393276 -2.41434,-2.393276 -1.70109,0 -2.00024,3.836375 -0.4203,5.390107 1.76848,1.739178 3.83156,-0.441948 2.83464,-2.996831 z M 91.518173,70.570191 c 0.56353,-0.896682 0.234426,-1.63033 -0.731074,-1.63033 -0.965604,0 -1.75566,0.733648 -1.75566,1.63033 0,0.896683 0.328975,1.630332 0.731075,1.630332 0.402099,0 1.19213,-0.733649 1.755659,-1.630332 z M 173.58038,28.181568 c 0,-0.896682 1.0364,-1.630332 2.30309,-1.630332 3.3704,0 10.86964,-6.397116 7.58125,-6.467092 -1.40216,-0.02981 -5.13226,2.116909 -8.28912,4.770503 -3.15689,2.653594 -4.80724,4.854541 -3.6675,4.890995 1.13976,0.03643 2.07228,-0.667392 2.07228,-1.564074 z m 35.72161,-8.899446 c 5.75733,-0.247861 8.48227,-3.320273 5.78227,-6.51962 -1.16716,-1.383005 -3.37786,-2.514583 -4.9127,-2.514583 -3.49445,0 -13.72094,7.274565 -12.25419,8.717002 0.59563,0.585747 0.0262,1.116547 -1.26562,1.17957 -1.34943,0.06572 -0.93803,0.673709 0.96707,1.428858 1.93395,0.766587 4.22415,0.598969 5.49576,-0.402233 1.19906,-0.944065 3.98341,-1.794129 6.18741,-1.888994 z m 50.48517,-5.985559 c 0,-3.161162 -0.68219,-3.3970763 -7.60436,-2.629801 -4.18242,0.4636 -8.40764,1.632853 -9.38941,2.598341 -1.27482,1.253674 -0.0492,1.47838 4.28874,0.786125 3.99351,-0.637307 6.07373,-0.337835 6.07373,0.874367 0,1.014016 1.49205,1.843651 3.31565,1.843651 2.27793,0 3.31565,-1.086897 3.31565,-3.472683 z M 467.01498,141.39341 c 0,-1.39794 0.75819,-2.08089 1.68486,-1.51769 0.92666,0.56323 1.25567,1.70701 0.73107,2.54171 -1.42114,2.26135 -2.41593,1.8397 -2.41593,-1.02402 z M 409.7721,64.367799 c -0.88541,-0.623755 -1.84581,-2.234574 -2.13424,-3.579597 -0.42031,-1.960041 0.0537,-1.88683 2.38807,0.368761 2.93445,2.835528 2.73814,5.318676 -0.25386,3.210836 z m 5.0332,-1.930593 c -0.58081,-0.924168 0.0846,-1.19748 1.55998,-0.640746 2.87205,1.08384 3.39752,2.252405 1.01286,2.252405 -0.85798,0 -2.01578,-0.725242 -2.57284,-1.611659 z m -11.68467,-9.909131 c -0.60102,-0.956342 -0.69469,-2.130283 -0.20827,-2.60876 1.18755,-1.167827 4.42088,0.889881 4.42088,2.813443 0,2.083513 -2.86209,1.944452 -4.21274,-0.20481 z M 367.54562,37.963557 c -1.49419,-0.949591 -1.69864,-1.590362 -0.51229,-1.605366 1.08592,-0.01268 2.4355,0.708684 2.99902,1.605366 1.27205,2.024108 0.69815,2.024108 -2.48673,0 z m 8.28912,0.989586 c 0,-1.546573 4.96248,-2.326024 5.84711,-0.918385 0.53891,0.857528 -0.5562,1.559131 -2.43363,1.559131 -1.87741,0 -3.41348,-0.288339 -3.41348,-0.640746 z M 337.70481,21.493386 c -5.71684,-3.029283 -5.72933,-3.05868 -0.84533,-1.994047 2.7264,0.594306 5.95026,2.057274 7.16418,3.251059 2.96423,2.915109 0.70757,2.466183 -6.31885,-1.257012 z m -18.23604,-0.648312 c 0,-1.345022 1.16307,-2.445496 2.58457,-2.445496 1.42153,0 2.12351,-0.733649 1.55999,-1.630332 -1.07586,-1.711874 4.54434,-2.324063 6.2188,-0.677377 1.58467,1.558393 -4.22603,7.198703 -7.41615,7.198703 -1.62098,0 -2.94721,-1.100474 -2.94721,-2.445498 z M 286.31232,16.67303 c 0,-0.949591 0.74602,-1.273135 1.65782,-0.71895 0.9118,0.554185 1.65782,1.331115 1.65782,1.726546 0,0.395433 -0.74602,0.718952 -1.65782,0.718952 -0.9118,0 -1.65782,-0.776955 -1.65782,-1.726548 z m 57.29248,-0.77079 c -3.14488,-2.339245 -3.13549,-2.393657 0.41445,-2.393657 2.12367,0 3.6325,1.015772 3.6325,2.445497 0,2.950162 -0.0101,2.950009 -4.04695,-0.05196 z m -69.31169,-3.473396 c 1.13975,-0.452264 3.0048,-0.452264 4.14456,0 1.13974,0.452265 0.20723,0.822324 -2.07228,0.822324 -2.27951,0 -3.21204,-0.370059 -2.07228,-0.822324 z M 230.77526,2.0962607 c 0.56354,-0.8966825 1.72661,-1.63033172 2.58457,-1.63033172 0.85801,0 1.55999,0.73364922 1.55999,1.63033172 0,0.8966825 -1.16307,1.6303317 -2.58457,1.6303317 -1.42153,0 -2.12351,-0.7336492 -1.55999,-1.6303317 z"
   id="path24246"
   sodipodi:nodetypes="sscsssssssssssssssssssssscssscsssscsssscsssscssscssscsssccssssssscscscsssssscssssssssssscssssssssscsssssssssscssssssssssssssssssssssssssssssssssssssssssssssssscccssssssscsssssssssscssssccsssssssscsssssscsssssscssssssssssssssssscscsccssssscssssscscssssssssssssscccscsscscssscssssscsssscsccccssssssscsscsccscscsscscsssssssssscsssssssssccsscsssscssssssssscscssssssscssssssssssccssssssssssssssssssssscssssssccsssssssscscssccssscssscssssssssscsscssssssssssssssscssscsscssssssssssssssssssssccsccscssssssssssssssssssssscssccsssssssss" /><path
   style="fill:#000000;stroke:#000000;stroke-width:2.6807"
   d="m 273.3626,463.92207 c -1.07401,-1.18676 -1.03621,-1.2392 1.79675,-2.49235 3.8405,-1.69883 2.8764,-2.63421 -2.7151,-2.63421 -3.85157,0 -4.77445,0.26459 -9.73746,2.79178 l -5.48263,2.79178 v -5.13076 c 0,-4.68489 -0.1317,-5.25282 -1.5155,-6.53529 -1.51153,-1.40084 -1.5123,-1.40742 -0.29518,-2.5089 0.67118,-0.6074 1.39484,-2.1957 1.60813,-3.52954 0.21329,-1.33385 0.92225,-2.95962 1.57546,-3.61284 1.17768,-1.17767 1.17431,-1.21219 -0.39981,-4.10436 -0.8731,-1.60419 -1.75492,-4.13843 -1.95959,-5.63165 -0.33073,-2.41296 -0.22885,-2.7524 0.916,-3.05179 0.90178,-0.23581 1.28812,-0.81951 1.28812,-1.94611 0,-1.99833 -1.60162,-5.20065 -2.60309,-5.20472 -0.40996,-0.002 0.0765,-0.66815 1.08106,-1.48108 1.51441,-1.22556 1.71194,-1.66709 1.15622,-2.58445 -0.36862,-0.6085 -1.3673,-1.19028 -2.21929,-1.29286 -1.539,-0.18527 -1.54256,-0.19912 -0.54741,-2.13085 0.884,-1.71595 1.00166,-5.0196 1.00166,-28.12338 0,-25.98328 0.0102,-26.1982 1.36983,-28.74224 1.59743,-2.98907 1.85202,-7.33542 0.46095,-7.86922 -0.61533,-0.23612 -0.79065,-0.81988 -0.54282,-1.80734 0.27258,-1.08605 0.11599,-1.45856 -0.61314,-1.45856 -1.19121,0 -1.19655,-0.23866 -0.0771,-3.45144 2.24153,-6.4332 2.69527,-29.67295 0.65632,-33.61585 -0.79263,-1.53277 -0.94887,-4.58422 -0.94501,-18.45681 0.005,-19.7968 0.44634,-24.22563 3.44513,-34.61153 l 2.27973,-7.89549 -1.11161,-8.66962 c -0.61139,-4.76829 -1.35892,-10.58739 -1.66118,-12.93133 -0.30226,-2.34393 -0.78874,-15.63131 -1.08106,-29.5275 -0.51534,-24.49827 -0.88062,-28.61429 -2.5394,-28.61429 -0.42997,0 -0.29642,-0.60663 0.35112,-1.59491 0.90019,-1.37386 0.9855,-2.50605 0.61555,-8.16924 -0.34192,-5.23402 -0.22002,-7.40956 0.59795,-10.67113 1.10677,-4.41312 0.83686,-8.06113 -0.63003,-8.51541 -2.87442,-0.89017 -2.79822,-0.78908 -1.54179,-2.04552 1.61358,-1.61358 2.48165,-5.03834 2.48257,-9.79437 6.5e-4,-3.4091 -0.33623,-4.62316 -2.43187,-8.76402 -2.31111,-4.56662 -3.19823,-8.8916 -1.8238,-8.8916 0.33484,0 0.60881,-0.91113 0.60881,-2.02473 0,-1.37253 0.49027,-2.48531 1.52204,-3.4546 1.6987,-1.59586 1.86764,-2.50719 0.78587,-4.23938 -0.59542,-0.95342 -0.5353,-1.59999 0.3145,-3.382031 0.57786,-1.211784 0.9152,-2.422412 0.74965,-2.690284 -0.16555,-0.267867 -1.4648,-0.67313 -2.88721,-0.900583 l -2.58622,-0.41355 1.96391,-1.536989 c 2.18216,-1.707798 2.52119,-3.746863 1.05068,-6.319251 -0.59135,-1.034467 -0.87698,-3.491108 -0.89165,-7.668849 -0.0155,-4.427335 -0.29922,-6.70337 -1.01411,-8.1364 -1.20393,-2.413338 -0.88065,-11.660197 0.5436,-15.548703 0.76187,-2.080067 0.77221,-2.834848 0.0709,-5.174924 -0.45159,-1.506816 -0.82524,-3.980047 -0.83033,-5.49607 -0.005,-1.519348 -0.44346,-3.376336 -0.97676,-4.137736 -1.18917,-1.697774 -0.72536,-3.1513 1.00554,-3.1513 1.20223,0 1.26428,-0.215153 0.87607,-3.037752 -0.39794,-2.893396 -0.34091,-3.066982 1.20014,-3.652887 7.03577,-2.674996 51.47632,3.598436 55.56854,7.84431 0.67785,0.703296 3.06898,1.467395 6.54717,2.092182 6.34411,1.139594 15.57519,4.0802 20.39529,6.497023 1.84166,0.92342 5.76583,2.677609 8.72035,3.898197 8.12963,3.358545 13.19697,5.952955 13.19697,6.756668 0,1.513675 2.23748,2.737213 5.00553,2.737213 1.87915,0 2.88962,0.288815 3.12111,0.892086 0.18829,0.490647 2.37548,1.856896 4.86043,3.036108 3.33238,1.581354 6.49508,3.910234 12.0513,8.87409 8.88827,7.940658 16.42175,13.187575 21.67979,15.099537 4.33352,1.57578 6.33003,3.717635 7.47414,8.01824 0.58535,2.200311 1.9009,3.938235 6.6823,8.827815 3.27441,3.34848 6.36826,6.91004 6.87524,7.91459 0.50697,1.00454 3.53304,4.61068 6.7246,8.01363 6.00239,6.39995 7.706,8.88763 7.7289,11.286 0.0212,2.2207 2.29702,6.68253 4.63382,9.08484 1.17992,1.21299 3.01468,3.95265 4.07724,6.08814 1.59852,3.21264 2.22297,3.91617 3.61842,4.07663 3.48994,0.4013 5.12778,6.2798 2.92637,10.50328 -1.07952,2.07111 -1.20638,2.87059 -0.7042,4.4379 0.33688,1.05144 0.89781,4.76535 1.2465,8.25314 0.7047,7.04883 1.50248,10.62651 2.83219,12.70122 0.48893,0.76286 0.74242,1.62413 0.56332,1.91394 -0.17911,0.2898 0.34365,1.99436 1.16169,3.78789 3.66593,8.03749 6.34447,29.64987 4.36548,35.22375 -1.05622,2.97488 -1.22945,13.29753 -0.47315,28.19375 0.30282,5.96424 0.2041,8.16376 -0.4197,9.35157 -0.58853,1.12064 -0.63091,1.73783 -0.1522,2.21653 0.36489,0.36489 0.66344,1.95891 0.66344,3.54226 0,3.2349 -1.093,4.79224 -3.36335,4.79224 -1.88233,0 -2.71674,2.82817 -2.7214,9.22393 -0.004,6.02916 -1.68381,15.70116 -5.16399,29.74021 -1.53562,6.19469 -3.01708,13.46103 -3.29214,16.14742 -0.52739,5.15089 -1.33061,7.24385 -5.83589,15.20653 -1.51566,2.67878 -3.32513,6.37733 -4.02106,8.21899 -1.57906,4.17874 -2.62459,5.35395 -5.19157,5.83552 -2.79128,0.52365 -3.29093,1.34098 -3.94749,6.45732 -0.94219,7.34218 -1.17147,8.32581 -2.17444,9.32878 -0.52857,0.52858 -1.27122,2.35686 -1.65032,4.06285 -0.86568,3.89569 -2.1219,4.82242 -4.5737,3.37412 -0.98052,-0.57922 -2.31276,-1.05311 -2.96052,-1.05311 -1.04764,0 -7.03604,6.54285 -14.61576,15.969 -3.42606,4.26066 -1.89202,5.63475 2.54371,2.2785 2.41443,-1.82686 4.60986,-2.37093 4.60986,-1.14243 0,1.33627 -2.17577,4.31535 -3.95729,5.41836 -1.00455,0.62196 -4.97706,1.99968 -8.82781,3.06162 -8.62366,2.37817 -11.97488,4.14403 -16.55465,8.72313 -7.02873,7.02773 -9.72991,12.89442 -4.08683,8.8762 2.768,-1.971 2.2972,0.1036 -0.78147,3.44356 -4.71334,5.11337 -8.53883,6.88786 -5.0839,2.35822 0.91763,-1.20308 1.52002,-2.33581 1.33865,-2.51719 -0.18138,-0.18137 -1.8177,0.52155 -3.63628,1.56203 -1.81858,1.04049 -3.54713,1.88687 -3.84122,1.88085 -0.29408,-0.006 2.13648,-2.57691 5.40124,-5.71308 5.66834,-5.44508 6.85691,-7.06594 5.17493,-7.05707 -0.9655,0.005 -2.8104,1.26625 -8.10242,5.53876 -5.69876,4.60087 -15.97372,10.96341 -16.27012,10.07489 -0.29927,-0.89713 -5.35673,-0.73945 -7.15524,0.22308 -1.13004,0.60479 -1.29042,1.08865 -1.02262,3.0853 0.23859,1.77875 0.0183,2.74857 -0.88529,3.89728 -1.5102,1.91991 -3.72006,1.9799 -9.95207,0.27017 -5.78256,-1.58642 -6.60416,-1.43765 -6.99165,1.266 l -0.30441,2.12394 -4.47473,0.10147 c -2.4611,0.0558 -5.13227,0.2665 -5.93594,0.46821 -1.86509,0.46811 -1.92182,2.38713 -0.10811,3.6575 l 1.35309,0.94774 h -1.57379 c -0.86558,0 -2.60801,0.8219 -3.87207,1.82645 -1.84863,1.4691 -2.88288,1.82644 -5.28631,1.82644 -3.09817,0 -3.49572,0.255 -6.99611,4.48751 -1.80698,2.18491 -2.75417,2.04298 -2.52028,-0.37766 0.18346,-1.89868 0.11152,-1.97033 -1.78749,-1.78055 -1.44934,0.14483 -1.97865,-0.0492 -1.97865,-0.72545 0,-1.54331 -1.02174,-1.67836 -3.15873,-0.41751 -1.11902,0.66024 -3.53726,1.51805 -5.37387,1.90625 -4.28697,0.90611 -5.47014,1.54911 -5.47014,2.97279 0,1.54657 -2.8141,3.67566 -4.85826,3.67566 -0.90749,0 -2.14367,-0.54553 -2.74707,-1.21228 z"
   id="path1" /><path
   style="fill:#000000;stroke:#000000;stroke-width:2.6807"
   d="m 221.32346,457.74651 c 0.0107,-0.45714 0.42161,-1.36297 0.91322,-2.01295 1.21331,-1.60413 1.12391,-2.16669 -0.3443,-2.16669 -0.76969,0 -1.71384,0.80623 -2.49539,2.13085 -1.59484,2.70306 -3.03179,2.74844 -9.65862,0.30505 -2.72352,-1.0042 -6.50925,-1.98764 -8.41274,-2.18543 -5.12308,-0.53234 -7.05392,-1.28512 -8.5757,-3.34344 -1.99175,-2.694 -3.91841,-2.26508 -4.32181,0.96212 l -0.30441,2.43526 -3.04408,-0.18368 c -3.20063,-0.19312 -4.76333,-1.33363 -4.12096,-3.00761 0.69757,-1.81785 -1.59796,-2.59198 -7.71508,-2.60177 -3.62094,-0.006 -5.49758,-0.2132 -4.96729,-0.54896 0.70325,-0.44526 0.62339,-0.83064 -0.45661,-2.20363 -1.78462,-2.26878 -1.65546,-2.71742 0.78232,-2.71742 2.77142,0 5.21455,-0.97347 5.21455,-2.07774 0,-0.68338 -0.88412,-0.89625 -3.80509,-0.91613 -2.13424,-0.0145 -6.20922,-0.69957 -9.28014,-1.56009 -3.01127,-0.8438 -7.03323,-1.53419 -8.93767,-1.53419 -3.12735,0 -3.48146,-0.13264 -3.65717,-1.36983 -0.15843,-1.11553 -0.64156,-1.4063 -2.60237,-1.56623 -1.3243,-0.10801 -3.55267,0.12415 -4.95193,0.51592 -3.01312,0.84361 -4.10063,0.41237 -8.04958,-3.19204 -1.44332,-1.3174 -3.49807,-2.76434 -4.56611,-3.21544 -1.06803,-0.45109 -3.93815,-2.33785 -6.37803,-4.19279 -3.93819,-2.99406 -7.36156,-4.62152 -9.74304,-4.63182 -1.02642,-0.004 -5.41965,-2.25132 -5.89002,-3.01241 -0.22804,-0.36897 0.75517,-0.45844 2.61604,-0.23805 3.28551,0.38911 4.09658,-0.17896 3.52231,-2.46704 -0.23413,-0.93285 -1.77521,-2.16045 -4.73334,-3.77049 -4.55905,-2.48137 -6.25162,-4.30309 -3.31271,-3.56547 1.48647,0.37308 1.58162,0.26334 1.58162,-1.82414 0,-3.24465 -3.47612,-9.42694 -4.83001,-8.59019 -0.38024,0.235 -0.66063,2.72017 -0.6766,5.99691 l -0.0273,5.5956 -2.747223,-3.04407 c -5.489012,-6.08214 -9.379739,-12.9863 -7.644221,-13.56481 0.989585,-0.32986 0.877186,-1.66794 -0.216349,-2.5755 -0.506722,-0.42054 -2.49298,-0.93484 -4.413906,-1.14288 l -3.492586,-0.37827 0.155843,-4.8676 c 0.08571,-2.67718 -0.07317,-5.21933 -0.353081,-5.64924 -0.69273,-1.06394 -2.542428,-0.26332 -2.542428,1.10045 0,2.82748 -3.83666,1.38319 -5.613122,-2.11302 -0.689565,-1.35712 -3.604158,-4.75886 -6.476873,-7.55943 l -5.223117,-5.09193 1.350781,-1.0938 c 1.774043,-1.43653 1.715936,-1.63529 -0.627866,-2.14757 -1.088256,-0.23786 -2.581991,-1.08153 -3.31941,-1.87482 -0.750459,-0.80731 -2.041298,-1.44234 -2.931894,-1.44234 -2.512388,0 -3.968334,-1.11257 -5.251214,-4.01273 -1.269274,-2.8694 -2.956829,-10.72075 -2.956829,-13.75664 0,-2.69119 -1.638607,-5.70136 -5.202739,-9.5576 -3.829327,-4.14317 -6.364738,-7.798 -6.364738,-9.17484 0,-0.56136 -0.987458,-1.89488 -2.19435,-2.96338 -1.503119,-1.33076 -2.071775,-2.26216 -1.805226,-2.95678 0.755656,-1.9692 1.692002,-13.94392 1.389801,-17.77387 -0.24125,-3.05748 -0.707575,-4.44993 -2.198755,-6.56548 -2.351393,-3.33595 -2.694487,-4.8705 -4.6183,-20.65619 -0.853445,-7.00287 -1.827952,-14.27849 -2.165571,-16.16805 -0.508542,-2.84616 -0.357696,-4.93509 0.879277,-12.17629 0.821221,-4.8074 1.929879,-12.43928 2.463685,-16.95973 1.684308,-14.26329 2.164824,-17.23266 3.088187,-19.08358 1.174086,-2.35351 1.137799,-3.02406 -0.318079,-5.87782 -0.669696,-1.31271 -1.217629,-2.67163 -1.217629,-3.01982 0,-1.13105 1.57978,-0.6697 3.044072,0.88897 2.367786,2.52039 3.460142,2.02811 3.769193,-1.69864 0.170118,-2.05141 0.762965,-3.8914 1.632947,-5.06811 1.09901,-1.48649 1.329186,-2.49277 1.178138,-5.15052 l -0.187724,-3.30309 -1.978648,0.15452 c -1.177221,0.0919 -1.978647,-0.1297 -1.978647,-0.54719 0,-0.38594 1.232849,-2.19923 2.739665,-4.02955 3.089454,-3.75273 3.307438,-4.90458 1.41308,-7.46683 -1.710526,-2.31361 -1.058765,-2.91014 1.727755,-1.58134 1.242226,0.59237 2.442911,0.82439 2.738184,0.52912 0.295273,-0.29528 0.263593,-1.90881 -0.07225,-3.6797 -0.743675,-3.92138 -0.360557,-4.99195 1.786446,-4.99195 5.034598,0 8.705032,-7.76856 7.289166,-15.42768 -0.768998,-4.15989 0.03986,-7.76891 2.232634,-9.96168 1.336877,-1.33688 1.83745,-1.45998 4.466381,-1.09841 l 2.960761,0.4072 -0.08194,-3.56462 c -0.06669,-2.90093 0.199051,-3.95863 1.42725,-5.68077 1.495471,-2.0969 1.51111,-2.1023 1.719734,-0.5941 0.115797,0.83712 0.4918,1.86449 0.835565,2.28305 0.967864,1.17845 3.787367,0.90044 5.638961,-0.55602 l 1.674349,-1.31705 -0.422989,1.92586 c -0.553662,2.52081 0.160592,2.43071 2.831598,-0.3572 2.625785,-2.7407 3.603146,-4.60569 5.297984,-10.10957 1.411158,-4.58264 1.635883,-7.40966 0.638031,-8.02637 -0.937382,-0.57933 -2.811394,1.33518 -3.197726,3.26685 -0.182474,0.91237 -0.937476,3.27775 -1.677782,5.25639 l -1.346011,3.59754 -1.131761,-1.39767 c -1.384788,-1.71014 -1.518697,-6.46396 -0.2665,-9.46089 0.491424,-1.17614 1.68673,-2.49566 2.766589,-3.05407 1.04573,-0.54077 2.398195,-1.80025 3.005478,-2.79885 l 1.104151,-1.81563 1.639575,2.14959 c 0.901766,1.18228 1.921637,2.1496 2.266385,2.1496 0.344741,0 1.057273,-1.09587 1.583405,-2.43526 0.961641,-2.448104 1.597048,-2.954016 2.293928,-1.82644 0.891061,1.44176 2.247433,0.37981 3.693648,-2.891872 2.680275,-6.063434 6.134202,-8.675608 11.471237,-8.675608 1.49781,0 2.88244,-0.257504 3.07694,-0.572231 0.19451,-0.314727 -0.61121,-1.342102 -1.79049,-2.283055 -1.17929,-0.940953 -2.14416,-2.158386 -2.14418,-2.705406 -2e-5,-1.410351 4.57696,-5.369703 6.69765,-5.793839 0.97864,-0.19573 2.20706,-1.00863 2.72981,-1.806445 0.64902,-0.990529 1.52525,-1.450574 2.76286,-1.450574 0.99682,0 2.21776,-0.479442 2.7132,-1.065426 6.88436,-8.142572 14.11405,-14.009047 21.92976,-17.794709 8.83956,-4.28159 38.13297,-14.278901 45.39364,-15.492029 1.48668,-0.248397 2.96136,-1.194833 4.69342,-3.012202 2.69984,-2.832812 4.41625,-3.406887 10.22387,-3.419511 1.6953,-0.0037 7.99653,-0.806321 14.00274,-1.783634 13.89234,-2.260525 22.17446,-3.305487 22.62531,-2.854651 0.19455,0.194548 0.0374,2.617584 -0.34926,5.384524 -0.9237,6.610322 -0.87823,13.784395 0.0994,15.685054 0.66219,1.287392 0.63735,1.632221 -0.16118,2.236748 -0.75505,0.571614 -0.9232,1.924693 -0.83985,6.758098 0.0573,3.323862 0.41862,7.211005 0.8029,8.638096 0.62834,2.333486 0.57188,2.729685 -0.56083,3.935396 -2.32939,2.479523 -0.99922,7.648296 1.97129,7.660043 1.1951,0.0047 1.09255,0.235359 -0.97662,2.196434 -1.27156,1.205135 -2.2118,2.491512 -2.08944,2.858618 0.12237,0.367106 1.14497,0.906503 2.27244,1.198661 1.12747,0.292156 1.75362,0.715693 1.39143,0.941192 -1.7825,1.109791 -2.20643,5.924542 -1.96588,22.327318 0.46422,31.65554 0.41566,33.20894 -1.11329,35.61566 -1.62107,2.55172 -1.90239,7.57551 -0.45529,8.13081 0.55438,0.21274 0.75122,0.74192 0.50989,1.3708 -0.23508,0.61262 2.9e-4,1.31194 0.58561,1.73994 0.87352,0.63873 0.88577,0.98529 0.11409,3.22513 -2.28956,6.64548 -2.73201,29.61375 -0.66212,34.37113 0.81849,1.88119 0.98483,4.7729 0.98483,17.1203 0,15.58699 -0.86696,27.01129 -3.11748,41.08038 l -1.29667,8.10612 1.56636,1.63493 c 3.62842,3.78726 4.30863,13.71694 2.23897,32.68444 -1.78633,16.37089 -1.42848,36.50934 0.69421,39.06702 0.53899,0.64945 0.52376,1.19416 -0.0641,2.29262 -0.5695,1.06411 -0.65771,3.17636 -0.33739,8.07968 0.3446,5.27503 0.23401,7.31132 -0.53832,9.91204 -0.53461,1.80022 -0.97202,4.12133 -0.97202,5.15802 0,2.40456 1.52161,4.59107 3.19496,4.59107 1.17223,0 1.2006,0.0745 0.28973,0.76102 -1.70736,1.28679 -2.87587,5.08197 -2.87587,9.34045 0,3.30273 0.38527,4.91133 2.08255,8.69516 3.15532,7.03429 3.16361,11.56821 0.028,15.32125 -1.95702,2.3424 -2.06689,2.66781 -1.21763,3.60623 1.18625,1.3108 1.17182,1.91656 -0.10964,4.60383 -1.23698,2.59395 -0.62501,3.30423 2.86958,3.33059 l 2.13085,0.0161 -1.97865,1.55941 c -2.24752,1.77131 -2.46051,3.21615 -0.99121,6.72394 0.75693,1.80706 0.91217,3.56551 0.66499,7.53233 -0.2719,4.36365 -0.12771,5.60313 0.9198,7.90633 1.05274,2.31473 1.19082,3.5251 0.90517,7.9342 -0.18539,2.86153 -0.78952,6.33356 -1.34251,7.71562 -0.92752,2.31809 -0.92923,2.6602 -0.0221,4.41447 l 0.98338,1.90164 -2.1601,0.90255 c -2.69098,1.12436 -8.65694,2.49244 -13.2646,3.04176 -2.7602,0.32907 -3.49659,0.24153 -3.48133,-0.41383 z m -36.05118,-13.76847 c -0.23347,-2.02904 -2.93231,-2.88051 -2.93231,-0.92513 0,1.33682 1.11377,2.59937 2.29305,2.59937 0.54835,0 0.76624,-0.57066 0.63926,-1.67424 z M 62.016719,142.91922 c 1.973876,-3.14799 1.666979,-7.7751 -0.461517,-6.95832 -1.26276,0.48457 -3.408215,4.01863 -3.411133,5.61893 -0.0049,2.69133 2.484981,3.55248 3.87265,1.33939 z"
   id="path2" /><path
   style="fill:#000000;stroke:#000000;stroke-width:2.6807"
   d="m 31.046177,188.72707 c -0.646551,-1.04614 0.331706,-3.03862 1.491884,-3.03862 1.425726,0 2.70452,1.55159 2.25159,2.73191 -0.395807,1.03146 -3.1558,1.25759 -3.743474,0.30671 z"
   id="path3" /></svg>
