<?xml version="1.0" encoding="UTF-8" standalone="no"?>
<!-- Generator: Adobe Illustrator 16.0.0, SVG Export Plug-In . SVG Version: 6.00 Build 0)  -->

<svg
   version="1.1"
   id="Layer_1"
   x="0px"
   y="0px"
   width="492.531px"
   height="492.531px"
   viewBox="0 0 492.531 492.531"
   enable-background="new 0 0 492.531 492.531"
   xml:space="preserve"
   sodipodi:docname="5clock_0.svg"
   inkscape:version="1.3.2 (091e20e, 2023-11-25, custom)"
   xmlns:inkscape="http://www.inkscape.org/namespaces/inkscape"
   xmlns:sodipodi="http://sodipodi.sourceforge.net/DTD/sodipodi-0.dtd"
   xmlns="http://www.w3.org/2000/svg"
   xmlns:svg="http://www.w3.org/2000/svg"><defs
   id="defs2248" /><sodipodi:namedview
   id="namedview2246"
   pagecolor="#505050"
   bordercolor="#ffffff"
   borderopacity="1"
   inkscape:pageshadow="0"
   inkscape:pageopacity="0"
   inkscape:pagecheckerboard="1"
   showgrid="false"
   inkscape:zoom="1.1614485"
   inkscape:cx="184.25268"
   inkscape:cy="187.26616"
   inkscape:window-width="1920"
   inkscape:window-height="1009"
   inkscape:window-x="1912"
   inkscape:window-y="362"
   inkscape:window-maximized="1"
   inkscape:current-layer="Layer_1"
   inkscape:showpageshadow="2"
   inkscape:deskcolor="#d1d1d1" />

<path
   style="fill:#000000;stroke-width:2.60038"
   d="m 233.89236,490.50232 c -12.5214,-1.45393 -25.57842,-5.02777 -35.49491,-9.71527 l -15.68706,-7.41531 -10.23625,5.06261 c -10.20408,5.04671 -10.26267,5.04657 -18.64653,-0.0384 -4.62563,-2.80554 -14.68455,-8.73219 -22.35313,-13.17033 -7.66861,-4.4381 -17.17637,-11.99798 -21.12837,-16.79967 -3.95202,-4.8017 -9.08901,-8.73038 -11.415586,-8.73042 -7.360652,-1.1e-4 -36.706079,-26.95217 -36.706079,-33.71236 0,-2.38945 -3.56541,-6.8057 -7.923134,-9.81387 -4.357724,-3.00817 -7.923134,-7.69531 -7.923134,-10.41579 0,-2.72051 -0.9236,-4.94639 -2.052469,-4.94639 -1.128848,0 -5.882728,-3.39153 -10.564172,-7.53677 -6.141478,-5.438 -8.511723,-9.78263 -8.511723,-15.60186 0,-5.91187 -1.410239,-8.42267 -5.282076,-9.40424 -2.905156,-0.7365 -5.282096,-2.87571 -5.282096,-4.75379 0,-1.87808 -1.485589,-4.33609 -3.301313,-5.46221 -7.7217085,-4.78906 -10.68630764,-10.85035 -7.26286,-14.84934 2.7150204,-3.17145 2.4611037,-3.84053 -1.4575199,-3.84053 -4.3289629,0 -4.2586451,-0.50546 0.8013655,-5.76082 C 10.575336,306.21304 13.564219,294.77435 9.595185,290.13805 7.729584,287.9588 7.0142042,280.80345 7.742677,271.60869 8.395365,263.37012 7.7032595,247.49911 6.2044798,236.33974 3.8233799,218.60996 4.0198934,215.66697 7.7620887,213.0142 13.631705,208.85337 13.177372,199.71494 7.0064793,197.81622 4.2355215,196.96361 1.3205211,194.62931 0.52870298,192.6289 -1.0295795,188.69212 9.7805466,168.18519 16.090194,163.10863 c 2.132651,-1.71588 3.877543,-4.17833 3.877543,-5.47214 0,-4.88224 25.198082,-40.42275 30.673818,-43.26376 5.438934,-2.82189 9.310951,-8.48666 12.581045,-18.406038 0.812421,-2.464342 3.752735,-4.480629 6.534072,-4.480629 2.835808,0 5.663634,-2.249157 6.438238,-5.120732 0.759711,-2.816407 3.094777,-5.120734 5.18902,-5.120734 2.094242,0 5.908936,-4.517325 8.477081,-10.038511 3.03147,-6.517193 6.943972,-10.591953 11.153709,-11.616246 5.6138,-1.365948 6.25356,-2.596227 4.76554,-9.164212 -1.61861,-7.144258 2.29547,-11.214199 4.53127,-4.711715 1.24527,3.62171 25.12355,-7.793311 32.21386,-15.399835 4.012,-4.304099 8.12212,-5.397464 20.29012,-5.397464 12.71762,0 15.5265,-0.81721 16.86538,-4.906718 0.88353,-2.698713 5.12324,-6.095271 9.42161,-7.5479 4.29837,-1.452648 7.81522,-3.738367 7.81522,-5.07937 0,-3.2940737 25.34224,-9.0118826 29.33614,-6.61891397 1.74703,1.04673857 7.31582,2.34538607 12.37509,2.88588517 5.05928,0.5404799 11.41134,2.1307343 14.11574,3.5338582 3.29484,1.709484 6.60244,1.6767242 10.02554,-0.099278 6.24147,-3.2383089 11.56614,-3.4607918 9.61602,-0.401817 -1.78298,2.7967806 7.53444,4.6561616 34.39188,6.8632266 22.2998,1.832534 32.75602,6.135039 32.75602,13.478373 0,2.502288 1.42617,5.93222 3.16927,7.62206 3.82754,3.710638 17.95908,4.113569 17.95908,0.51206 0,-4.655086 7.68346,-2.657888 10.68386,2.777137 1.62058,2.935597 7.01052,6.983645 11.97762,8.99563 4.96708,2.011966 9.03106,4.770149 9.03106,6.12926 0,1.486387 -2.56396,1.338583 -6.43418,-0.370958 -7.63225,-3.371249 -14.69416,-1.352544 -14.69416,4.200443 0,2.955836 1.6863,3.559377 6.60261,2.363162 4.73408,-1.151874 6.60259,-0.571779 6.60259,2.049853 0,2.011025 2.97119,6.160868 6.60263,9.221916 3.63143,3.06103 6.6026,6.452077 6.6026,7.535668 0,1.08359 2.67405,3.1075 5.94236,4.497565 3.2683,1.390086 7.0957,5.075127 8.50532,8.189002 1.40962,3.113876 6.53586,7.72253 11.39157,10.241442 5.29251,2.74553 12.01273,9.9637 16.77844,18.02178 4.6107,7.79604 9.80968,13.44436 12.37782,13.44774 3.14947,0.004 4.5162,2.35654 4.73354,8.14717 0.18303,4.87691 2.50121,9.86495 5.78141,12.43994 3.73665,2.93335 4.61674,5.13147 2.77103,6.92084 -1.84576,1.78936 -1.37523,5.11485 1.48144,10.47034 2.3025,4.31646 4.18633,9.75687 4.18633,12.08975 0,2.48484 1.45988,3.69851 3.52484,2.93033 2.1579,-0.80277 5.10565,2.06979 7.60109,7.40716 3.10226,6.63532 3.28021,8.71844 0.74473,8.71844 -1.83231,0 -4.14431,-2.59236 -5.13777,-5.76081 -0.99346,-3.16845 -2.37514,-4.44989 -3.07038,-2.84763 -0.69524,1.60225 1.32049,7.36307 4.47946,12.80181 4.33676,7.46651 6.25978,16.61593 7.85108,37.35373 1.15916,15.10582 2.84376,28.61992 3.74354,30.03135 0.89982,1.41143 0.22213,5.12737 -1.50587,8.25758 -2.33573,4.23104 -2.36707,5.94175 -0.12221,6.6672 4.27899,1.38279 3.74128,8.65257 -1.13969,15.40823 -2.28771,3.16638 -8.17183,17.3075 -13.07584,31.42471 -4.90401,14.11719 -12.54002,30.44447 -16.96891,36.28286 -4.42877,5.83835 -8.05237,13.26861 -8.05237,16.51169 0,4.25369 -1.52124,5.89652 -5.46007,5.89652 -4.07247,0 -5.07346,1.18087 -3.93883,4.64658 1.12231,3.42801 -2.93613,8.46396 -15.47522,19.20273 -9.34807,8.00588 -18.27184,14.55614 -19.83058,14.55614 -1.55878,0 -2.8341,1.16908 -2.8341,2.59799 0,3.64299 -16.06784,12.74309 -22.52056,12.75461 -2.94458,0.006 -8.99833,3.17802 -13.45283,7.05058 -11.82601,10.28107 -23.22569,16.01691 -35.96747,18.09742 -8.19812,1.33859 -11.96887,3.44528 -13.8931,7.76189 -2.18334,4.89788 -4.10019,5.69878 -11.06087,4.62141 -5.55656,-0.86005 -9.51887,-0.0205 -11.65159,2.4718 -2.60045,3.03763 -3.6642,3.12619 -5.44564,0.45339 -1.77247,-2.65932 -2.73248,-2.55584 -4.81452,0.5189 -1.73903,2.56817 -2.61399,2.78024 -2.64106,0.6401 -0.0213,-1.76026 -1.82313,-3.20047 -4.00198,-3.20047 -2.17887,0 -3.96159,1.72826 -3.96159,3.84056 0,4.38376 -7.92326,4.55974 -39.61566,0.87977 z m 54.14141,-35.93642 c 7.16043,0.5575 32.50852,-7.11873 42.25673,-12.79672 4.35771,-2.53821 10.3213,-4.61925 13.25241,-4.62451 2.93108,-0.006 9.86668,-2.99864 15.41239,-6.65192 10.03203,-6.60867 10.05777,-6.67033 5.07869,-12.16171 -2.75246,-3.03569 -6.39429,-8.68784 -8.09292,-12.5604 -1.69865,-3.87253 -4.89663,-7.04097 -7.10663,-7.04097 -2.21001,0 -4.02161,-1.44021 -4.0258,-3.20047 -0.006,-1.76026 -3.53786,-5.49349 -7.85263,-8.29609 -4.36771,-2.83701 -8.58171,-8.34728 -9.50705,-12.43158 -0.97615,-4.3087 -4.76323,-9.06144 -9.17724,-11.51733 -4.13341,-2.29978 -8.73985,-6.787 -10.23659,-9.97159 -1.49671,-3.18464 -3.93527,-5.79022 -5.419,-5.79022 -1.48371,0 -2.69766,-1.60979 -2.69766,-3.57726 0,-1.96751 -3.2683,-7.3142 -7.26286,-11.88154 -3.9946,-4.56736 -10.53117,-12.03896 -14.52576,-16.60359 -3.99457,-4.56458 -7.26286,-9.4088 -7.26286,-10.76488 0,-1.3561 -22.44365,-32.17182 -28.58904,-32.38945 l -4.99824,8.91149 c -5.89775,-4.11394 -13.95148,20.67641 -13.95148,24.64628 0,2.09034 -4.75387,9.58881 -10.56419,16.66331 -5.81029,7.07451 -10.56418,13.86438 -10.56418,15.08865 0,1.22422 -1.68956,2.2259 -3.7546,2.2259 -2.06505,0 -7.11604,5.2444 -11.22445,11.65423 -4.10841,6.40984 -11.49047,16.49126 -16.40461,22.40318 -4.91414,5.9119 -10.24394,13.62935 -11.84404,17.14987 -1.60007,3.52048 -5.02725,7.91993 -7.61594,9.77652 -2.58866,1.8566 -4.12918,4.2815 -3.42335,5.38865 0.70582,1.10715 -1.65123,4.68564 -5.23792,7.95222 -7.62641,6.94576 -8.44735,14.0058 -1.89936,16.33444 2.54199,0.90401 9.96993,4.40987 16.50651,7.79079 6.53659,3.38093 15.45012,6.95301 19.80784,7.93794 4.35772,0.9849 8.72391,3.01209 9.70262,4.5049 1.23154,1.87838 2.9329,1.78616 5.52511,-0.29948 2.06006,-1.65746 4.33405,-2.44311 5.05326,-1.74584 0.71921,0.69723 9.96202,4.18001 20.88535,6.10216 l 26.25038,4.6192 M 51.703829,325.7332 c -4.692039,2.81123 -2.899867,13.46433 3.524884,20.95264 3.415208,3.98059 6.683501,8.51954 7.262861,10.0865 2.263956,6.12316 27.570921,35.39286 44.408566,51.36236 l 6.38057,6.05156 6.16439,-5.61425 c 3.39043,-3.08783 6.16442,-7.14166 6.16442,-9.00847 0,-1.86683 1.11399,-3.39425 2.47556,-3.39425 1.36155,0 6.33395,-7.59813 11.0498,-16.88473 5.17131,-10.18353 10.87112,-17.7313 14.36154,-19.01784 3.81312,-1.40545 6.37404,-5.16526 7.50741,-11.02198 0.94605,-4.8889 3.47136,-10.29791 5.61176,-12.02002 2.14044,-1.72215 3.8917,-4.51055 3.8917,-6.19647 0,-1.68592 2.97116,-5.5698 6.6026,-8.63084 3.63145,-3.06104 6.60263,-6.78778 6.60263,-8.28167 0,-1.49389 3.55989,-6.3982 7.91091,-10.89847 4.35098,-4.50029 7.91639,-9.27146 7.92313,-10.60259 0.006,-1.33116 3.28052,-5.80798 7.27509,-9.9485 l 7.26286,-7.52825 5.07035,-16.32876 c 2.43516,-12.20571 -15.90426,-6.38085 -20.76114,-9.94219 -2.81962,-2.06751 -7.90812,-3.75911 -11.30773,-3.75911 -7.94129,0 -37.82025,-9.68833 -42.98917,-13.93936 -5.42294,-4.45997 -20.36381,-9.10391 -29.28972,-9.10391 -4.05524,0 -8.08771,-1.12086 -8.96107,-2.49078 -1.46221,-2.29364 -18.453789,-7.73781 -27.775316,-8.89934 -2.178862,-0.27151 -5.744273,-1.17384 -7.923135,-2.0052 -2.178862,-0.83136 -6.338507,-2.06483 -9.243662,-2.74105 -2.905136,-0.67623 -9.759004,-3.10661 -15.230779,-5.40087 -9.927847,-4.16265 -9.954131,-4.15751 -12.544957,2.44869 -1.427947,3.64105 -2.596272,9.42549 -2.596272,12.85432 0,3.42882 -1.049399,6.23423 -2.331997,6.23423 -1.282596,0 -2.007129,3.74453 -1.61006,8.32118 0.397068,4.57666 0.93695,8.32119 1.199741,8.32119 1.888577,0 2.35222,19.13423 0.49068,20.2496 -2.621072,1.5704 2.421884,25.53843 7.191077,34.17748 1.968323,3.5655 2.088458,5.9756 0.349785,7.01735 -3.777553,2.26333 -3.281524,8.98711 0.653123,8.85317 1.815725,-0.0616 4.39597,6.62196 10.206261,4.59268 M 292.34372,247.42764 c -20.85133,5.24087 -19.25146,14.42044 -27.40773,10.12045 -2.78361,-1.46753 -3.48942,5.3466 9.30339,14.60229 4.95351,3.58389 9.26339,6.50917 13.38505,10.92444 2.40402,2.57524 4.3709,6.03173 4.3709,7.68109 0,1.64937 1.56709,2.99885 3.48238,2.99885 3.69345,0 28.21018,31.38165 28.21018,36.10934 0,3.19988 10.65759,18.51276 13.77639,19.79396 1.14538,0.47052 6.36078,7.10412 11.58984,14.74135 5.22902,7.63719 10.87143,14.74132 12.53864,15.78687 2.91853,1.83027 4.35444,3.75071 14.33143,19.16727 4.79793,7.41385 10.80056,8.7883 19.24553,4.40676 2.80963,-1.45776 5.10845,-4.83746 5.10845,-7.51045 0,-2.67298 5.79557,-10.62829 12.87907,-17.67846 7.08346,-7.0502 13.58995,-15.5644 14.4588,-18.92048 0.86887,-3.35609 4.72694,-10.59792 8.57349,-16.09295 8.66939,-12.3848 13.30714,-22.0471 10.87788,-31.80039 4.85666,-10.59088 7.76317,-14.79317 8.2655,-18.20338 0.50233,-3.41018 1.88867,-7.35464 3.08077,-8.76544 3.71494,-4.39649 6.33694,-56.64972 2.9446,-58.68225 -1.63742,-0.98107 -2.97711,-5.82407 -2.97711,-10.76225 0,-15.62895 -3.52588,-19.01124 -17.88844,-17.15985 -6.86597,0.88504 -13.43399,3.16366 -14.5956,5.0636 -1.16161,1.89991 -3.76775,3.45441 -5.79139,3.45441 -2.02365,0 -7.60982,2.19774 -12.41373,4.88385 -4.80389,2.68611 -12.06503,4.84642 -16.13585,4.80068 -4.07083,-0.0456 -10.08981,2.36518 -13.37545,5.3576 -3.28565,2.99243 -8.57141,5.44078 -11.74606,5.44078 -3.17466,0 -5.77215,1.15217 -5.77215,2.56036 0,1.40819 -3.92195,2.56036 -8.71545,2.56036 -4.79348,0 -9.8445,1.01223 -11.22442,2.24939 -1.37994,1.23717 -10.82829,4.71601 -20.99631,7.73076 M 373.64746,89.130623 C 360.24162,77.222927 360.28909,76.045416 358.26649,77.257378 c -1.60777,0.963285 -3.59505,0.05414 -4.41618,-2.02032 -0.82113,-2.074469 -4.37815,-4.473774 -7.9045,-5.33179 -3.52642,-0.858016 -6.41159,-3.288274 -6.41159,-5.400573 0,-2.771337 -1.75795,-3.412805 -6.3145,-2.304117 -3.47295,0.845036 -7.10852,0.290904 -8.07899,-1.231413 -0.97047,-1.522295 -4.29033,-2.767822 -7.37742,-2.767822 -3.0871,0 -10.52854,-2.30692 -16.53654,-5.126494 -14.18034,-6.654877 -43.03302,-8.36413 -44.7443,-2.650686 -1.34598,4.493649 -0.52923,17.948613 2.35706,38.831191 1.20311,8.704479 0.93668,16.323196 -0.67281,19.238656 -1.8447,3.34156 -1.69968,7.17966 0.47121,12.47217 1.99262,4.85779 3.05542,22.3476 2.91505,47.97088 -0.22407,40.90986 -5.68986,42.24755 8.17747,60.06777 20.43132,0.54841 43.30303,-14.10102 60.33443,-15.17738 17.88191,-1.13012 31.10041,-9.81839 38.76994,-13.40526 7.66955,-3.58688 16.15653,-6.52159 18.85999,-6.52159 2.70345,0 9.83509,-2.30433 15.84807,-5.12071 6.01294,-2.81641 13.01622,-5.12074 15.56281,-5.12074 2.54661,0 5.2814,-1.02155 6.07739,-2.27011 0.79596,-1.24856 5.71931,-3.04708 10.94077,-3.99671 7.60011,-1.38224 9.11506,-2.58911 7.59559,-6.05107 -1.04387,-2.37846 -3.30433,-8.0601 -5.02325,-12.62585 -1.71892,-4.56577 -5.56953,-10.90268 -8.55692,-14.08202 -6.34011,-6.74744 -12.74107,-17.74358 -11.93486,-20.50268 0.30859,-1.05615 -1.81584,-1.92028 -4.72102,-1.92028 -3.43063,0 -5.28208,-1.70691 -5.28208,-4.86971 0,-3.02977 0.99341,-12.78941 -5.16845,-15.90607 m -172.8911,127.90279 c 4.26374,6.4163 5.05119,-19.56562 5.87417,-23.47762 0.54189,-2.57573 0.13094,-7.76047 -0.91319,-11.52163 -1.04415,-3.76118 -1.50243,-15.47972 -1.01842,-26.04122 1.84804,-40.32499 0.11509,-123.294159 -2.64233,-126.515242 -1.53224,-1.789849 -2.0039,-4.012372 -1.04811,-4.93896 0.95579,-0.92657 -1.39417,-1.684694 -5.22212,-1.684694 -4.81375,0 -6.53103,1.083475 -5.56908,3.513676 1.69091,4.2718 -7.45205,6.279119 -18.72339,4.110727 -6.14862,-1.182887 -10.07849,0.08641 -17.54685,5.667108 -5.29302,3.955281 -11.73604,7.191401 -14.31777,7.191401 -2.58176,0 -6.86392,1.903681 -9.51593,4.230399 -2.65201,2.326717 -8.26178,4.135575 -12.46617,4.019687 -4.87896,-0.134424 -9.82213,2.036679 -13.66453,6.001791 -5.37487,5.546496 -6.72112,12.704201 -16.56138,17.480493 -12.59263,0.728609 -15.20454,7.860997 -18.770639,9.175404 -3.566123,1.314407 -8.605158,5.60971 -11.197884,9.54512 -2.592727,3.9354 -6.814529,8.66081 -9.381784,10.50091 -2.567253,1.8401 -4.667736,4.82999 -4.667736,6.64418 0,1.8142 -2.346594,5.35731 -5.214651,7.87358 -2.868075,2.51627 -5.975845,7.01545 -6.90616,9.99818 -0.930334,2.98275 -3.785455,7.72749 -6.344746,10.54387 -4.375353,4.81494 -12.199012,24.11523 -10.188893,25.13511 0.507912,0.25769 3.581415,1.90875 6.829999,3.66898 3.248584,1.76025 8.229442,3.20046 11.068579,3.20046 2.839135,0 5.827761,1.04423 6.641389,2.32049 0.813647,1.27628 7.717488,3.13932 15.341881,4.14009 21.606235,2.83604 23.525765,3.35534 28.484875,7.70617 3.34555,2.93518 7.24541,3.61318 13.86158,2.4099 5.62234,-1.02252 9.8988,-0.58809 10.98518,1.11596 0.97834,1.53466 4.53434,2.79031 7.90219,2.79031 3.36785,0 7.68219,1.82087 9.58744,4.0464 2.02029,2.35997 6.00766,3.57505 9.56702,2.91543 3.35665,-0.62205 6.10299,-0.13872 6.10299,1.0743 0,1.21292 2.3068,2.20531 5.12623,2.20531 2.81942,0 5.92472,1.25254 6.90067,2.78342 0.97596,1.53087 3.72014,2.29952 6.09822,1.70808 2.37807,-0.59142 7.88916,0.40838 12.24688,2.22184 11.42019,4.75241 8.21611,4.04722 16.0669,6.26357 M 151.49176,52.56855 c 5.14409,-4.986947 3.83938,-12.289743 -2.19574,-12.289743 -5.91957,0 -9.24384,5.562818 -6.88516,11.521634 1.83595,4.638246 4.82777,4.891319 9.0809,0.768109 z m 213.13231,-2.083361 c 0,-2.421867 -3.12077,-4.09717 -8.58339,-4.60779 -9.30596,-0.869845 -11.37,2.794208 -3.96157,7.032556 6.16025,3.524258 12.54496,2.290194 12.54496,-2.424766 z M 202.57167,32.541492 c -13.74501,-6.04642 -13.57708,-6.029175 -13.57708,-1.394022 0,3.37751 6.16401,5.285454 19.80784,6.131123 2.90514,0.180121 0.10125,-1.951632 -6.23076,-4.737101 z m 123.75725,0.330152 c 0,-6.4809 -6.3656,-8.491944 -15.2173,-4.807518 -9.53764,3.969953 -9.34124,3.784724 -7.34017,6.92362 0.9575,1.501884 6.42462,2.730704 12.14917,2.730704 8.45154,0 10.4083,-0.911207 10.4083,-4.846806 z m -30.50405,-5.682432 c 1.5335,-1.389029 0.84737,-2.272584 -1.76478,-2.272584 -6.34256,0 -12.62892,2.771222 -12.62892,5.567195 0,2.704512 10.39816,0.324469 14.3937,-3.294611 z"
   id="path10926"
   sodipodi:nodetypes="sscssssssssssssssssssscsssssssssscccsssssssssssssssssssssssssssscsssssssssssssssssssssssscsssscsscsssscscsssscsssssssssccsssssssssssssssssccssscssssssssssscsccssssssssssssssssscccssssssssssssssscsssssssscssssscccsssssssssssscsssssssssssssccsssssssscsscscsssssscsssssssssssssssccsssssssscsccsssssssss" /></svg>
